<?xml version="1.0" ?>
<!DOCTYPE svg  PUBLIC '-//W3C//DTD SVG 1.1//EN'  'http://www.w3.org/Graphics/SVG/1.1/DTD/svg11.dtd'>
<!-- Uploaded to: SVG Repo, www.svgrepo.com, Generator: SVG Repo Mixer Tools -->
<svg fill="#000000" width="800px" height="800px" viewBox="0 0 512 512" version="1.1" xml:space="preserve" xmlns="http://www.w3.org/2000/svg" xmlns:xlink="http://www.w3.org/1999/xlink">
<g id="A_-_90_x2C__plant_x2C__grow_x2C__growth_x2C__success">
<g>
<path d="M265.521,57.544c4.681,0,8.487-3.849,8.487-8.581c0-4.678-3.807-8.484-8.487-8.484c-4.729,0-8.577,3.806-8.577,8.484    C256.944,53.695,260.791,57.544,265.521,57.544z"/>
<path d="M107.849,202.285c0-6.76-5.501-12.26-12.265-12.26c-6.758,0-12.257,5.5-12.257,12.26c0,6.758,5.499,12.257,12.257,12.257    C102.348,214.542,107.849,209.043,107.849,202.285z"/>
<path d="M408.336,105.235c6.758,0,12.256-5.5,12.256-12.26c0-6.758-5.498-12.257-12.256-12.257    c-6.759,0-12.257,5.499-12.257,12.257C396.079,99.735,401.577,105.235,408.336,105.235z"/>
<path d="M214.664,341.063c0.002,0,0.002,0,0.005,0c10.386,0,21.632-1.188,33.423-3.527c0.333-0.066,0.648-0.185,0.937-0.342    v30.997c-41.914,1.162-77.311,24.46-84.836,56.27c-0.231,0.976-0.002,2.004,0.619,2.79c0.623,0.787,1.57,1.245,2.573,1.245    h169.799c0.007,0,0.013,0,0.02,0c1.812,0,3.28-1.469,3.28-3.279c0-0.391-0.069-0.764-0.193-1.11    c-7.75-31.625-43.02-54.755-84.701-55.915v-38.598c0.168,0.891,0.326,1.774,0.503,2.67c0.259,1.303,1.278,2.32,2.581,2.579    c17.172,3.402,33.525,5.128,48.609,5.128c38.178,0,68.284-10.729,89.48-31.893c29.618-29.579,38.857-77.348,26.719-138.142    c-0.261-1.301-1.279-2.317-2.58-2.574c-17.169-3.402-33.521-5.126-48.602-5.126c-38.185,0-68.277,10.729-89.441,31.891    c-13.121,13.123-22.234,29.832-27.269,49.663V143.22c5.962-30.478,1.211-54.518-13.764-69.542    c-10.856-10.821-26.174-16.308-45.528-16.308c-7.564,0-15.755,0.864-24.346,2.568c-1.303,0.259-2.321,1.277-2.579,2.58    c-6.078,30.673-1.342,54.835,13.696,69.873c10.822,10.822,26.136,16.31,45.516,16.311c0.001,0,0.002,0,0.003,0    c6.41,0,13.273-0.627,20.442-1.853v120.187c-3.698-10.784-9.339-20.061-16.903-27.643c-14.722-14.684-35.568-22.13-61.959-22.13    c-10.409,0-21.7,1.192-33.559,3.542c-1.301,0.258-2.319,1.275-2.579,2.576c-8.366,41.987-1.935,75.033,18.603,95.569    C167.362,333.621,188.233,341.061,214.664,341.063z M307.067,333.407c0.074,0,0.15,0.003,0.224,0.003c-0.004,0-0.006,0-0.01,0    C307.211,333.41,307.139,333.407,307.067,333.407z M261.379,324.74l61.379-64.039l-4.907-60.037    c-0.147-1.806,1.196-3.389,3.001-3.536c1.799-0.149,3.39,1.196,3.537,3.002l4.435,54.244l36.003-37.563    c1.254-1.308,3.33-1.352,4.637-0.098c1.309,1.253,1.354,3.329,0.1,4.637l-40.877,42.647c-0.07,0.086-0.152,0.161-0.23,0.24    l-34.539,36.038l56.597-8.987c1.789-0.284,3.47,0.936,3.754,2.725s-0.937,3.47-2.726,3.753l-65.135,10.343l-20.509,21.397     M317.927,398.8c-0.063-0.062-0.126-0.12-0.189-0.18C317.801,398.68,317.864,398.738,317.927,398.8z M240.484,332.25    c0.085-0.015,0.17-0.025,0.255-0.04C240.654,332.225,240.57,332.235,240.484,332.25z M240.882,332.184l-47.719-49.792    l-27.086,10.176c-0.38,0.144-0.77,0.211-1.153,0.211c-1.328,0-2.577-0.812-3.071-2.127c-0.637-1.696,0.221-3.587,1.917-4.224    l24.456-9.188l-17.494-18.255c-1.253-1.308-1.209-3.384,0.099-4.637c1.309-1.253,3.384-1.209,4.637,0.098l44.603,46.542l2.21-33.8    c0.118-1.807,1.66-3.177,3.487-3.059c1.808,0.119,3.177,1.68,3.059,3.487l-2.602,39.793l19.163,19.996    c-0.228,1.36-0.468,2.729-0.73,4.111C243.391,331.754,242.133,331.976,240.882,332.184z"/>
<path d="M397.676,443.942h-0.734c-0.386,0-0.756,0.067-1.1,0.189c-0.344-0.122-0.715-0.189-1.101-0.189h-0.733    c-0.387,0-0.757,0.067-1.1,0.189c-0.344-0.122-0.715-0.189-1.102-0.189h-0.733c-0.386,0-0.757,0.067-1.101,0.189    c-0.344-0.122-0.715-0.189-1.101-0.189h-0.733c-0.386,0-0.756,0.067-1.1,0.189c-0.344-0.122-0.715-0.189-1.101-0.189h-0.733    c-0.387,0-0.758,0.067-1.101,0.189c-0.345-0.122-0.715-0.189-1.101-0.189h-0.734c-0.385,0-0.756,0.067-1.1,0.189    c-0.344-0.122-0.715-0.189-1.1-0.189h-0.734c-0.387,0-0.756,0.067-1.1,0.189c-0.345-0.122-0.715-0.189-1.101-0.189h-0.733    c-0.387,0-0.756,0.067-1.101,0.189c-0.345-0.122-0.715-0.189-1.101-0.189h-0.733c-0.386,0-0.757,0.067-1.101,0.189    c-0.344-0.122-0.715-0.189-1.102-0.189h-0.732c-0.387,0-0.757,0.067-1.102,0.189c-0.344-0.122-0.713-0.189-1.1-0.189h-0.734    c-0.386,0-0.756,0.067-1.1,0.189c-0.344-0.122-0.714-0.189-1.1-0.189h-0.734c-0.386,0-0.756,0.067-1.1,0.189    c-0.344-0.122-0.715-0.189-1.102-0.189h-0.732c-0.387,0-0.757,0.067-1.102,0.189c-0.344-0.122-0.715-0.189-1.101-0.189h-0.733    c-0.386,0-0.756,0.067-1.1,0.189c-0.345-0.122-0.715-0.189-1.101-0.189h-0.733c-0.387,0-0.756,0.067-1.101,0.189    c-0.345-0.122-0.714-0.189-1.101-0.189h-0.733c-0.386,0-0.756,0.067-1.101,0.189c-0.344-0.122-0.713-0.189-1.1-0.189h-0.734    c-0.386,0-0.756,0.067-1.1,0.189c-0.344-0.122-0.715-0.189-1.101-0.189h-0.733c-0.387,0-0.758,0.067-1.102,0.189    c-0.344-0.122-0.714-0.189-1.1-0.189h-0.733c-0.386,0-0.757,0.067-1.101,0.189c-0.344-0.122-0.714-0.189-1.1-0.189h-0.734    c-0.387,0-0.756,0.067-1.1,0.189c-0.345-0.122-0.715-0.189-1.101-0.189h-0.733c-0.387,0-0.756,0.067-1.101,0.189    c-0.344-0.122-0.715-0.189-1.101-0.189h-0.733c-0.386,0-0.757,0.067-1.101,0.189c-0.344-0.122-0.715-0.189-1.102-0.189h-0.732    c-0.387,0-0.757,0.067-1.102,0.189c-0.344-0.122-0.713-0.189-1.1-0.189h-0.734c-0.386,0-0.756,0.067-1.1,0.189    c-0.344-0.122-0.713-0.189-1.1-0.189h-0.734c-0.386,0-0.756,0.067-1.1,0.189c-0.344-0.122-0.715-0.189-1.102-0.189h-0.732    c-0.387,0-0.757,0.067-1.102,0.189c-0.344-0.122-0.714-0.189-1.1-0.189h-0.734c-0.386,0-0.756,0.067-1.1,0.189    c-0.345-0.122-0.715-0.189-1.101-0.189h-0.733c-0.386,0-0.756,0.067-1.101,0.189c-0.345-0.122-0.714-0.189-1.101-0.189h-0.733    c-0.386,0-0.756,0.067-1.101,0.189c-0.344-0.122-0.713-0.189-1.1-0.189h-0.733c-0.386,0-0.757,0.067-1.101,0.189    c-0.344-0.122-0.715-0.189-1.101-0.189h-0.733c-0.386,0-0.758,0.067-1.101,0.189c-0.344-0.122-0.715-0.189-1.101-0.189h-0.733    c-0.386,0-0.757,0.067-1.101,0.189c-0.344-0.122-0.714-0.189-1.1-0.189h-0.734c-0.387,0-0.756,0.067-1.1,0.189    c-0.345-0.122-0.715-0.189-1.101-0.189h-0.733c-0.387,0-0.756,0.067-1.101,0.189c-0.344-0.122-0.714-0.189-1.101-0.189h-0.733    c-0.386,0-0.757,0.067-1.101,0.189c-0.344-0.122-0.715-0.189-1.102-0.189h-0.732c-0.387,0-0.757,0.067-1.102,0.189    c-0.344-0.122-0.713-0.189-1.1-0.189h-0.734c-0.386,0-0.756,0.067-1.1,0.189c-0.344-0.122-0.713-0.189-1.1-0.189h-0.734    c-0.386,0-0.756,0.067-1.1,0.189c-0.344-0.122-0.715-0.189-1.102-0.189h-0.732c-0.387,0-0.757,0.067-1.102,0.189    c-0.344-0.122-0.714-0.189-1.1-0.189h-0.733c-0.386,0-0.757,0.067-1.101,0.189c-0.345-0.122-0.715-0.189-1.101-0.189h-0.733    c-0.387,0-0.756,0.067-1.101,0.189c-0.344-0.122-0.714-0.189-1.101-0.189h-0.733c-0.386,0-0.756,0.067-1.1,0.189    c-0.345-0.122-0.715-0.189-1.101-0.189H273.7c-0.386,0-0.757,0.067-1.101,0.189c-0.344-0.122-0.715-0.189-1.101-0.189h-0.733    c-0.387,0-0.758,0.067-1.102,0.189c-0.343-0.122-0.713-0.189-1.1-0.189h-0.733c-0.386,0-0.757,0.067-1.101,0.189    c-0.344-0.122-0.714-0.189-1.1-0.189h-0.734c-0.387,0-0.756,0.067-1.1,0.189c-0.345-0.122-0.715-0.189-1.101-0.189h-0.733    c-0.387,0-0.756,0.067-1.101,0.189c-0.344-0.122-0.714-0.189-1.101-0.189h-0.732c-0.387,0-0.758,0.067-1.102,0.189    c-0.344-0.122-0.715-0.189-1.101-0.189h-0.733c-0.386,0-0.757,0.067-1.101,0.189c-0.344-0.122-0.714-0.189-1.1-0.189h-0.733    c-0.387,0-0.757,0.067-1.101,0.189c-0.344-0.122-0.714-0.189-1.101-0.189h-0.733c-0.386,0-0.756,0.067-1.101,0.189    c-0.344-0.122-0.714-0.189-1.101-0.189h-0.733c-0.386,0-0.756,0.067-1.101,0.189c-0.344-0.122-0.714-0.189-1.1-0.189h-0.733    c-0.386,0-0.756,0.067-1.101,0.189c-0.344-0.122-0.714-0.189-1.101-0.189h-0.733c-0.386,0-0.756,0.067-1.1,0.189    c-0.344-0.122-0.714-0.189-1.101-0.189h-0.733c-0.387,0-0.757,0.067-1.101,0.189c-0.344-0.122-0.714-0.189-1.1-0.189h-0.734    c-0.386,0-0.756,0.067-1.1,0.189c-0.344-0.122-0.714-0.189-1.101-0.189h-0.734c-0.386,0-0.756,0.067-1.1,0.189    c-0.344-0.122-0.714-0.189-1.101-0.189h-0.733c-0.386,0-0.757,0.067-1.101,0.189c-0.344-0.122-0.714-0.189-1.101-0.189h-0.733    c-0.386,0-0.756,0.067-1.101,0.189c-0.344-0.122-0.714-0.189-1.101-0.189h-0.733c-0.386,0-0.756,0.067-1.1,0.189    c-0.344-0.122-0.714-0.189-1.101-0.189h-0.733c-0.386,0-0.756,0.067-1.101,0.189c-0.344-0.122-0.714-0.189-1.1-0.189h-0.734    c-0.386,0-0.756,0.067-1.1,0.189c-0.344-0.122-0.714-0.189-1.101-0.189h-0.733c-0.386,0-0.757,0.067-1.101,0.189    c-0.344-0.122-0.714-0.189-1.101-0.189h-0.733c-0.386,0-0.756,0.067-1.101,0.189c-0.344-0.122-0.714-0.189-1.101-0.189h-0.733    c-0.386,0-0.756,0.067-1.1,0.189c-0.344-0.122-0.714-0.189-1.101-0.189h-0.733c-0.386,0-0.756,0.067-1.101,0.189    c-0.344-0.122-0.714-0.189-1.1-0.189h-0.734c-0.386,0-0.756,0.067-1.1,0.189c-0.344-0.122-0.714-0.189-1.1-0.189h-0.734    c-0.386,0-0.757,0.067-1.1,0.189c-0.344-0.122-0.714-0.189-1.101-0.189h-0.734c-0.386,0-0.756,0.067-1.101,0.189    c-0.344-0.122-0.714-0.189-1.1-0.189h-0.733c-0.387,0-0.757,0.067-1.101,0.189c-0.344-0.122-0.714-0.189-1.101-0.189h-0.733    c-0.386,0-0.756,0.067-1.101,0.189c-0.344-0.122-0.714-0.189-1.101-0.189h-0.733c-0.386,0-0.756,0.067-1.101,0.189    c-0.344-0.122-0.714-0.189-1.1-0.189h-0.734c-0.386,0-0.756,0.067-1.1,0.189c-0.344-0.122-0.714-0.189-1.101-0.189h-0.733    c-0.386,0-0.756,0.067-1.101,0.189c-0.344-0.122-0.714-0.189-1.1-0.189h-0.733c-0.387,0-0.757,0.067-1.101,0.189    c-0.344-0.122-0.714-0.189-1.101-0.189h-0.733c-0.386,0-0.756,0.067-1.101,0.189c-0.344-0.122-0.714-0.189-1.101-0.189h-0.733    c-0.386,0-0.756,0.067-1.101,0.189c-0.344-0.122-0.714-0.189-1.1-0.189h-0.734c-0.386,0-0.756,0.067-1.1,0.189    c-0.344-0.122-0.714-0.189-1.101-0.189h-0.733c-0.386,0-0.756,0.067-1.1,0.189c-0.344-0.122-0.714-0.189-1.101-0.189h-0.733    c-0.386,0-0.757,0.067-1.1,0.189c-0.344-0.122-0.715-0.189-1.101-0.189h-0.734c-0.386,0-0.756,0.067-1.101,0.189    c-0.344-0.122-0.714-0.189-1.1-0.189h-0.734c-0.386,0-0.756,0.067-1.1,0.189c-0.344-0.122-0.714-0.189-1.101-0.189h-0.733    c-0.386,0-0.757,0.067-1.101,0.189c-0.344-0.122-0.714-0.189-1.101-0.189h-0.733c-0.386,0-0.756,0.067-1.101,0.189    c-0.344-0.122-0.714-0.189-1.101-0.189h-0.733c-0.386,0-0.756,0.067-1.1,0.189c-0.344-0.122-0.714-0.189-1.101-0.189h-0.733    c-0.386,0-0.756,0.067-1.101,0.189c-0.344-0.122-0.714-0.189-1.101-0.189h-0.733c-0.386,0-0.756,0.067-1.1,0.189    c-0.344-0.122-0.714-0.189-1.101-0.189h-0.733c-0.386,0-0.757,0.067-1.101,0.189c-0.344-0.122-0.714-0.189-1.101-0.189h-0.733    c-0.386,0-0.756,0.067-1.101,0.189c-0.344-0.122-0.714-0.189-1.101-0.189h-0.733c-0.386,0-0.756,0.067-1.1,0.189    c-0.344-0.122-0.714-0.189-1.101-0.189h-0.733c-0.386,0-0.756,0.067-1.1,0.189c-0.344-0.122-0.715-0.189-1.101-0.189h-0.734    c-0.386,0-0.756,0.067-1.1,0.189c-0.344-0.122-0.714-0.189-1.1-0.189h-0.734c-0.386,0-0.757,0.067-1.101,0.189    c-0.344-0.122-0.714-0.189-1.1-0.189h-0.734c-0.386,0-0.756,0.067-1.1,0.189c-0.344-0.122-0.714-0.189-1.1-0.189h-0.734    c-0.386,0-0.756,0.067-1.1,0.189c-0.344-0.122-0.714-0.189-1.101-0.189h-0.733c-0.386,0-0.756,0.067-1.101,0.189    c-0.344-0.122-0.714-0.189-1.101-0.189h-0.733c-0.386,0-0.756,0.067-1.101,0.189c-0.344-0.122-0.714-0.189-1.1-0.189h-0.734    c-0.386,0-0.756,0.067-1.1,0.189c-0.344-0.122-0.714-0.189-1.101-0.189h-0.733c-0.386,0-0.756,0.067-1.101,0.189    c-0.344-0.122-0.714-0.189-1.1-0.189h-0.734c-1.811,0-3.28,1.469-3.28,3.28c0,1.811,1.469,3.279,3.28,3.279h0.734    c0.386,0,0.756-0.066,1.1-0.189c0.344,0.123,0.714,0.189,1.101,0.189h0.733c0.386,0,0.756-0.066,1.101-0.189    c0.344,0.123,0.714,0.189,1.1,0.189h0.734c0.386,0,0.756-0.066,1.1-0.189c0.344,0.123,0.714,0.189,1.101,0.189h0.733    c0.386,0,0.756-0.066,1.101-0.189c0.344,0.123,0.714,0.189,1.101,0.189h0.733c0.386,0,0.756-0.066,1.101-0.189    c0.344,0.123,0.714,0.189,1.1,0.189h0.734c0.386,0,0.756-0.066,1.1-0.189c0.344,0.123,0.714,0.189,1.1,0.189h0.734    c0.386,0,0.756-0.066,1.1-0.189c0.344,0.123,0.714,0.189,1.101,0.189h0.734c0.386,0,0.756-0.066,1.1-0.189    c0.344,0.123,0.714,0.189,1.1,0.189h0.734c0.386,0,0.756-0.066,1.101-0.189c0.344,0.123,0.714,0.189,1.1,0.189h0.733    c0.386,0,0.756-0.066,1.101-0.189c0.344,0.123,0.714,0.189,1.1,0.189h0.733c0.387,0,0.757-0.066,1.101-0.189    c0.344,0.123,0.714,0.189,1.101,0.189h0.733c0.386,0,0.756-0.066,1.101-0.189c0.344,0.123,0.714,0.189,1.101,0.189h0.733    c0.386,0,0.756-0.066,1.101-0.189c0.344,0.123,0.714,0.189,1.1,0.189h0.733c0.386,0,0.756-0.066,1.101-0.189    c0.344,0.123,0.714,0.189,1.101,0.189h0.733c0.386,0,0.756-0.066,1.101-0.189c0.344,0.123,0.714,0.189,1.1,0.189h0.733    c0.387,0,0.757-0.066,1.101-0.189c0.344,0.123,0.714,0.189,1.101,0.189h0.733c0.386,0,0.756-0.066,1.101-0.189    c0.344,0.123,0.714,0.189,1.101,0.189h0.733c0.386,0,0.756-0.066,1.101-0.189c0.343,0.123,0.713,0.189,1.1,0.189h0.734    c0.386,0,0.756-0.066,1.1-0.189c0.344,0.123,0.714,0.189,1.101,0.189h0.734c0.386,0,0.756-0.066,1.101-0.189    c0.343,0.123,0.714,0.189,1.1,0.189h0.733c0.387,0,0.757-0.066,1.101-0.189c0.344,0.123,0.714,0.189,1.1,0.189h0.733    c0.386,0,0.756-0.066,1.101-0.189c0.344,0.123,0.714,0.189,1.1,0.189h0.734c0.386,0,0.756-0.066,1.1-0.189    c0.344,0.123,0.714,0.189,1.101,0.189h0.733c0.386,0,0.757-0.066,1.101-0.189c0.344,0.123,0.714,0.189,1.101,0.189h0.733    c0.386,0,0.756-0.066,1.101-0.189c0.344,0.123,0.714,0.189,1.101,0.189h0.733c0.386,0,0.756-0.066,1.1-0.189    c0.344,0.123,0.714,0.189,1.101,0.189h0.733c0.386,0,0.756-0.066,1.101-0.189c0.344,0.123,0.714,0.189,1.1,0.189h0.734    c0.386,0,0.756-0.066,1.1-0.189c0.344,0.123,0.714,0.189,1.101,0.189h0.733c0.386,0,0.756-0.066,1.101-0.189    c0.344,0.123,0.714,0.189,1.101,0.189h0.733c0.386,0,0.756-0.066,1.101-0.189c0.344,0.123,0.714,0.189,1.101,0.189h0.733    c0.386,0,0.756-0.066,1.1-0.189c0.344,0.123,0.715,0.189,1.101,0.189h0.734c0.386,0,0.756-0.066,1.101-0.189    c0.343,0.123,0.714,0.189,1.1,0.189h0.734c0.386,0,0.756-0.066,1.1-0.189c0.344,0.123,0.714,0.189,1.1,0.189h0.734    c0.386,0,0.756-0.066,1.1-0.189c0.344,0.123,0.715,0.189,1.101,0.189h0.733c0.386,0,0.756-0.066,1.101-0.189    c0.344,0.123,0.714,0.189,1.1,0.189h0.733c0.387,0,0.757-0.066,1.101-0.189c0.344,0.123,0.714,0.189,1.101,0.189h0.733    c0.386,0,0.756-0.066,1.101-0.189c0.344,0.123,0.714,0.189,1.101,0.189h0.733c0.386,0,0.756-0.066,1.101-0.189    c0.344,0.123,0.714,0.189,1.1,0.189h0.734c0.386,0,0.756-0.066,1.1-0.189c0.344,0.123,0.714,0.189,1.101,0.189h0.733    c0.386,0,0.756-0.066,1.101-0.189c0.344,0.123,0.714,0.189,1.1,0.189h0.733c0.387,0,0.757-0.066,1.101-0.189    c0.344,0.123,0.714,0.189,1.101,0.189h0.733c0.386,0,0.756-0.066,1.101-0.189c0.344,0.123,0.714,0.189,1.101,0.189h0.733    c0.386,0,0.756-0.066,1.101-0.189c0.343,0.123,0.713,0.189,1.1,0.189h0.734c0.386,0,0.756-0.066,1.101-0.189    c0.344,0.123,0.714,0.189,1.1,0.189h0.734c0.386,0,0.756-0.066,1.1-0.189c0.344,0.123,0.714,0.189,1.101,0.189h0.733    c0.387,0,0.757-0.066,1.101-0.189c0.344,0.123,0.714,0.189,1.1,0.189h0.733c0.386,0,0.756-0.066,1.101-0.189    c0.344,0.123,0.714,0.189,1.101,0.189h0.733c0.386,0,0.756-0.066,1.1-0.189c0.344,0.123,0.714,0.189,1.101,0.189h0.733    c0.386,0,0.757-0.066,1.101-0.189c0.344,0.123,0.714,0.189,1.101,0.189h0.733c0.386,0,0.756-0.066,1.101-0.189    c0.344,0.123,0.714,0.189,1.101,0.189h0.733c0.386,0,0.756-0.066,1.1-0.189c0.344,0.123,0.715,0.189,1.101,0.189h0.733    c0.386,0,0.757-0.066,1.101-0.189c0.344,0.123,0.715,0.189,1.102,0.189h0.732c0.387,0,0.757-0.066,1.101-0.189    c0.345,0.123,0.714,0.189,1.101,0.189h0.733c0.386,0,0.756-0.066,1.101-0.189c0.344,0.123,0.713,0.189,1.1,0.189h0.734    c0.386,0,0.756-0.066,1.1-0.189c0.344,0.123,0.715,0.189,1.101,0.189h0.733c0.387,0,0.757-0.066,1.1-0.189    c0.344,0.123,0.715,0.189,1.102,0.189h0.733c0.386,0,0.757-0.066,1.101-0.189c0.344,0.123,0.715,0.189,1.101,0.189h0.733    c0.386,0,0.756-0.066,1.101-0.189c0.344,0.123,0.714,0.189,1.1,0.189h0.733c0.387,0,0.757-0.066,1.101-0.189    c0.345,0.123,0.714,0.189,1.101,0.189h0.733c0.386,0,0.756-0.066,1.101-0.189c0.344,0.123,0.715,0.189,1.101,0.189h0.733    c0.386,0,0.756-0.066,1.1-0.189c0.345,0.123,0.715,0.189,1.102,0.189h0.732c0.387,0,0.758-0.066,1.102-0.189    c0.344,0.123,0.714,0.189,1.1,0.189h0.734c0.387,0,0.756-0.066,1.1-0.189c0.344,0.123,0.714,0.189,1.1,0.189h0.734    c0.387,0,0.756-0.066,1.1-0.189c0.345,0.123,0.715,0.189,1.102,0.189h0.732c0.387,0,0.758-0.066,1.102-0.189    c0.344,0.123,0.715,0.189,1.101,0.189h0.733c0.387,0,0.757-0.066,1.101-0.189c0.345,0.123,0.714,0.189,1.101,0.189h0.733    c0.386,0,0.756-0.066,1.101-0.189c0.344,0.123,0.713,0.189,1.1,0.189h0.734c0.386,0,0.756-0.066,1.1-0.189    c0.344,0.123,0.715,0.189,1.101,0.189h0.733c0.386,0,0.757-0.066,1.101-0.189c0.343,0.123,0.715,0.189,1.101,0.189h0.733    c0.386,0,0.757-0.066,1.101-0.189c0.344,0.123,0.715,0.189,1.101,0.189h0.733c0.387,0,0.756-0.066,1.1-0.189    c0.345,0.123,0.715,0.189,1.101,0.189h0.733c0.387,0,0.756-0.066,1.101-0.189c0.345,0.123,0.715,0.189,1.101,0.189h0.733    c0.386,0,0.756-0.066,1.101-0.189c0.344,0.123,0.714,0.189,1.1,0.189h0.734c0.386,0,0.756-0.066,1.1-0.189    c0.345,0.123,0.715,0.189,1.102,0.189h0.732c0.387,0,0.758-0.066,1.102-0.189c0.344,0.123,0.714,0.189,1.1,0.189h0.734    c0.387,0,0.756-0.066,1.1-0.189c0.344,0.123,0.714,0.189,1.1,0.189h0.734c0.387,0,0.756-0.066,1.1-0.189    c0.345,0.123,0.715,0.189,1.102,0.189h0.732c0.387,0,0.758-0.066,1.102-0.189c0.344,0.123,0.715,0.189,1.101,0.189h0.733    c0.386,0,0.757-0.066,1.101-0.189c0.345,0.123,0.714,0.189,1.101,0.189h0.733c0.386,0,0.756-0.066,1.101-0.189    c0.344,0.123,0.713,0.189,1.1,0.189h0.734c0.386,0,0.756-0.066,1.1-0.189c0.344,0.123,0.715,0.189,1.101,0.189h0.733    c0.386,0,0.756-0.066,1.1-0.189c0.344,0.123,0.715,0.189,1.102,0.189h0.733c0.386,0,0.757-0.066,1.101-0.189    c0.344,0.123,0.714,0.189,1.1,0.189h0.734c0.387,0,0.756-0.066,1.1-0.189c0.345,0.123,0.715,0.189,1.101,0.189h0.733    c0.387,0,0.756-0.066,1.101-0.189c0.345,0.123,0.714,0.189,1.101,0.189h0.733c0.386,0,0.756-0.066,1.101-0.189    c0.344,0.123,0.714,0.189,1.1,0.189h0.733c0.386,0,0.757-0.066,1.101-0.189c0.345,0.123,0.715,0.189,1.102,0.189h0.732    c0.387,0,0.758-0.066,1.102-0.189c0.344,0.123,0.714,0.189,1.1,0.189h0.734c0.386,0,0.756-0.066,1.1-0.189    c0.344,0.123,0.714,0.189,1.1,0.189h0.734c0.387,0,0.756-0.066,1.1-0.189c0.345,0.123,0.715,0.189,1.102,0.189h0.732    c0.387,0,0.758-0.066,1.102-0.189c0.344,0.123,0.715,0.189,1.101,0.189h0.733c0.386,0,0.756-0.066,1.101-0.189    c0.345,0.123,0.714,0.189,1.101,0.189h0.733c0.386,0,0.756-0.066,1.101-0.189c0.344,0.123,0.713,0.189,1.1,0.189h0.734    c0.385,0,0.756-0.066,1.1-0.189c0.344,0.123,0.715,0.189,1.1,0.189h0.734c0.386,0,0.756-0.066,1.101-0.189    c0.343,0.123,0.714,0.189,1.101,0.189h0.733c0.386,0,0.757-0.066,1.101-0.189c0.344,0.123,0.714,0.189,1.1,0.189h0.733    c0.386,0,0.757-0.066,1.101-0.189c0.344,0.123,0.715,0.189,1.101,0.189h0.733c0.387,0,0.758-0.066,1.102-0.189    c0.343,0.123,0.713,0.189,1.1,0.189h0.733c0.386,0,0.757-0.066,1.101-0.189c0.344,0.123,0.714,0.189,1.1,0.189h0.734    c1.811,0,3.279-1.469,3.279-3.279C400.955,445.411,399.486,443.942,397.676,443.942z"/>
<path d="M397.676,464.961h-0.734c-0.386,0-0.756,0.066-1.1,0.189c-0.344-0.123-0.715-0.189-1.101-0.189h-0.733    c-0.387,0-0.757,0.066-1.1,0.189c-0.344-0.123-0.715-0.189-1.102-0.189h-0.733c-0.386,0-0.757,0.066-1.101,0.189    c-0.344-0.123-0.715-0.189-1.101-0.189h-0.733c-0.386,0-0.756,0.066-1.1,0.189c-0.344-0.123-0.715-0.189-1.101-0.189h-0.733    c-0.387,0-0.758,0.066-1.101,0.189c-0.345-0.123-0.715-0.189-1.101-0.189h-0.734c-0.385,0-0.756,0.066-1.1,0.189    c-0.344-0.123-0.715-0.189-1.1-0.189h-0.734c-0.387,0-0.756,0.066-1.1,0.189c-0.345-0.123-0.715-0.189-1.101-0.189h-0.733    c-0.387,0-0.756,0.066-1.101,0.189c-0.345-0.123-0.715-0.189-1.101-0.189h-0.733c-0.386,0-0.757,0.066-1.101,0.189    c-0.344-0.123-0.715-0.189-1.102-0.189h-0.732c-0.387,0-0.757,0.066-1.102,0.189c-0.344-0.123-0.713-0.189-1.1-0.189h-0.734    c-0.386,0-0.756,0.066-1.1,0.189c-0.344-0.123-0.714-0.189-1.1-0.189h-0.734c-0.386,0-0.756,0.066-1.1,0.189    c-0.344-0.123-0.715-0.189-1.102-0.189h-0.732c-0.387,0-0.757,0.066-1.102,0.189c-0.344-0.123-0.715-0.189-1.101-0.189h-0.733    c-0.386,0-0.756,0.066-1.1,0.189c-0.345-0.123-0.715-0.189-1.101-0.189h-0.733c-0.387,0-0.756,0.066-1.101,0.189    c-0.345-0.123-0.714-0.189-1.101-0.189h-0.733c-0.386,0-0.756,0.066-1.101,0.189c-0.344-0.123-0.713-0.189-1.1-0.189h-0.734    c-0.386,0-0.756,0.066-1.1,0.189c-0.344-0.123-0.715-0.189-1.101-0.189h-0.733c-0.387,0-0.758,0.066-1.102,0.189    c-0.344-0.123-0.714-0.189-1.1-0.189h-0.733c-0.386,0-0.757,0.066-1.101,0.189c-0.344-0.123-0.714-0.189-1.1-0.189h-0.734    c-0.387,0-0.756,0.066-1.1,0.189c-0.345-0.123-0.715-0.189-1.101-0.189h-0.733c-0.387,0-0.756,0.066-1.101,0.189    c-0.344-0.123-0.715-0.189-1.101-0.189h-0.733c-0.386,0-0.757,0.066-1.101,0.189c-0.344-0.123-0.715-0.189-1.102-0.189h-0.732    c-0.387,0-0.757,0.066-1.102,0.189c-0.344-0.123-0.713-0.189-1.1-0.189h-0.734c-0.386,0-0.756,0.066-1.1,0.189    c-0.344-0.123-0.713-0.189-1.1-0.189h-0.734c-0.386,0-0.756,0.066-1.1,0.189c-0.344-0.123-0.715-0.189-1.102-0.189h-0.732    c-0.387,0-0.757,0.066-1.102,0.189c-0.344-0.123-0.714-0.189-1.1-0.189h-0.734c-0.386,0-0.756,0.066-1.1,0.189    c-0.345-0.123-0.715-0.189-1.101-0.189h-0.733c-0.386,0-0.756,0.066-1.101,0.189c-0.345-0.123-0.714-0.189-1.101-0.189h-0.733    c-0.386,0-0.756,0.066-1.101,0.189c-0.344-0.123-0.713-0.189-1.1-0.189h-0.733c-0.386,0-0.757,0.066-1.101,0.189    c-0.344-0.123-0.715-0.189-1.101-0.189h-0.733c-0.386,0-0.758,0.066-1.101,0.189c-0.344-0.123-0.715-0.189-1.101-0.189h-0.733    c-0.386,0-0.757,0.066-1.101,0.189c-0.344-0.123-0.714-0.189-1.1-0.189h-0.734c-0.387,0-0.756,0.066-1.1,0.189    c-0.345-0.123-0.715-0.189-1.101-0.189h-0.733c-0.387,0-0.756,0.066-1.101,0.189c-0.344-0.123-0.714-0.189-1.101-0.189h-0.733    c-0.386,0-0.757,0.066-1.101,0.189c-0.344-0.123-0.715-0.189-1.102-0.189h-0.732c-0.387,0-0.757,0.066-1.102,0.189    c-0.344-0.123-0.713-0.189-1.1-0.189h-0.734c-0.386,0-0.756,0.066-1.1,0.189c-0.344-0.123-0.713-0.189-1.1-0.189h-0.734    c-0.386,0-0.756,0.066-1.1,0.189c-0.344-0.123-0.715-0.189-1.102-0.189h-0.732c-0.387,0-0.757,0.066-1.102,0.189    c-0.344-0.123-0.714-0.189-1.1-0.189h-0.733c-0.386,0-0.757,0.066-1.101,0.189c-0.345-0.123-0.715-0.189-1.101-0.189h-0.733    c-0.387,0-0.756,0.066-1.101,0.189c-0.344-0.123-0.714-0.189-1.101-0.189h-0.733c-0.386,0-0.756,0.066-1.1,0.189    c-0.345-0.123-0.715-0.189-1.101-0.189H273.7c-0.386,0-0.757,0.066-1.101,0.189c-0.344-0.123-0.715-0.189-1.101-0.189h-0.733    c-0.387,0-0.758,0.066-1.102,0.189c-0.343-0.123-0.713-0.189-1.1-0.189h-0.733c-0.386,0-0.757,0.066-1.101,0.189    c-0.344-0.123-0.714-0.189-1.1-0.189h-0.734c-0.387,0-0.756,0.066-1.1,0.189c-0.345-0.123-0.715-0.189-1.101-0.189h-0.733    c-0.387,0-0.756,0.066-1.101,0.189c-0.344-0.123-0.714-0.189-1.101-0.189h-0.732c-0.387,0-0.758,0.066-1.102,0.189    c-0.344-0.123-0.715-0.189-1.101-0.189h-0.733c-0.386,0-0.757,0.066-1.101,0.189c-0.344-0.123-0.714-0.189-1.1-0.189h-0.733    c-0.387,0-0.757,0.066-1.101,0.189c-0.344-0.123-0.714-0.189-1.101-0.189h-0.733c-0.386,0-0.756,0.066-1.101,0.189    c-0.344-0.123-0.714-0.189-1.101-0.189h-0.733c-0.386,0-0.756,0.066-1.101,0.189c-0.344-0.123-0.714-0.189-1.1-0.189h-0.733    c-0.386,0-0.756,0.066-1.101,0.189c-0.344-0.123-0.714-0.189-1.101-0.189h-0.733c-0.386,0-0.756,0.066-1.1,0.189    c-0.344-0.123-0.714-0.189-1.101-0.189h-0.733c-0.387,0-0.757,0.066-1.101,0.189c-0.344-0.123-0.714-0.189-1.1-0.189h-0.734    c-0.386,0-0.756,0.066-1.1,0.189c-0.344-0.123-0.714-0.189-1.101-0.189h-0.734c-0.386,0-0.756,0.066-1.1,0.189    c-0.344-0.123-0.714-0.189-1.101-0.189h-0.733c-0.386,0-0.757,0.066-1.101,0.189c-0.344-0.123-0.714-0.189-1.101-0.189h-0.733    c-0.386,0-0.756,0.066-1.101,0.189c-0.344-0.123-0.714-0.189-1.101-0.189h-0.733c-0.386,0-0.756,0.066-1.1,0.189    c-0.344-0.123-0.714-0.189-1.101-0.189h-0.733c-0.386,0-0.756,0.066-1.101,0.189c-0.344-0.123-0.714-0.189-1.1-0.189h-0.734    c-0.386,0-0.756,0.066-1.1,0.189c-0.344-0.123-0.714-0.189-1.101-0.189h-0.733c-0.386,0-0.757,0.066-1.101,0.189    c-0.344-0.123-0.714-0.189-1.101-0.189h-0.733c-0.386,0-0.756,0.066-1.101,0.189c-0.344-0.123-0.714-0.189-1.101-0.189h-0.733    c-0.386,0-0.756,0.066-1.1,0.189c-0.344-0.123-0.714-0.189-1.101-0.189h-0.733c-0.386,0-0.756,0.066-1.101,0.189    c-0.344-0.123-0.714-0.189-1.1-0.189h-0.734c-0.386,0-0.756,0.066-1.1,0.189c-0.344-0.123-0.714-0.189-1.1-0.189h-0.734    c-0.386,0-0.757,0.066-1.1,0.189c-0.344-0.123-0.714-0.189-1.101-0.189h-0.734c-0.386,0-0.756,0.066-1.101,0.189    c-0.344-0.123-0.714-0.189-1.1-0.189h-0.733c-0.387,0-0.757,0.066-1.101,0.189c-0.344-0.123-0.714-0.189-1.101-0.189h-0.733    c-0.386,0-0.756,0.066-1.101,0.189c-0.344-0.123-0.714-0.189-1.101-0.189h-0.733c-0.386,0-0.756,0.066-1.101,0.189    c-0.344-0.123-0.714-0.189-1.1-0.189h-0.734c-0.386,0-0.756,0.066-1.1,0.189c-0.344-0.123-0.714-0.189-1.101-0.189h-0.733    c-0.386,0-0.756,0.066-1.101,0.189c-0.344-0.123-0.714-0.189-1.1-0.189h-0.733c-0.387,0-0.757,0.066-1.101,0.189    c-0.344-0.123-0.714-0.189-1.101-0.189h-0.733c-0.386,0-0.756,0.066-1.101,0.189c-0.344-0.123-0.714-0.189-1.101-0.189h-0.733    c-0.386,0-0.756,0.066-1.101,0.189c-0.344-0.123-0.714-0.189-1.1-0.189h-0.734c-0.386,0-0.756,0.066-1.1,0.189    c-0.344-0.123-0.714-0.189-1.101-0.189h-0.733c-0.386,0-0.756,0.066-1.1,0.189c-0.344-0.123-0.714-0.189-1.101-0.189h-0.733    c-0.386,0-0.757,0.066-1.1,0.189c-0.344-0.123-0.715-0.189-1.101-0.189h-0.734c-0.386,0-0.756,0.066-1.101,0.189    c-0.344-0.123-0.714-0.189-1.1-0.189h-0.734c-0.386,0-0.756,0.066-1.1,0.189c-0.344-0.123-0.714-0.189-1.101-0.189h-0.733    c-0.386,0-0.757,0.066-1.101,0.189c-0.344-0.123-0.714-0.189-1.101-0.189h-0.733c-0.386,0-0.756,0.066-1.101,0.189    c-0.344-0.123-0.714-0.189-1.101-0.189h-0.733c-0.386,0-0.756,0.066-1.1,0.189c-0.344-0.123-0.714-0.189-1.101-0.189h-0.733    c-0.386,0-0.756,0.066-1.101,0.189c-0.344-0.123-0.714-0.189-1.101-0.189h-0.733c-0.386,0-0.756,0.066-1.1,0.189    c-0.344-0.123-0.714-0.189-1.101-0.189h-0.733c-0.386,0-0.757,0.066-1.101,0.189c-0.344-0.123-0.714-0.189-1.101-0.189h-0.733    c-0.386,0-0.756,0.066-1.101,0.189c-0.344-0.123-0.714-0.189-1.101-0.189h-0.733c-0.386,0-0.756,0.066-1.1,0.189    c-0.344-0.123-0.714-0.189-1.101-0.189h-0.733c-0.386,0-0.756,0.066-1.1,0.189c-0.344-0.123-0.715-0.189-1.101-0.189h-0.734    c-0.386,0-0.756,0.066-1.1,0.189c-0.344-0.123-0.714-0.189-1.1-0.189h-0.734c-0.386,0-0.757,0.066-1.101,0.189    c-0.344-0.123-0.714-0.189-1.1-0.189h-0.734c-0.386,0-0.756,0.066-1.1,0.189c-0.344-0.123-0.714-0.189-1.1-0.189h-0.734    c-0.386,0-0.756,0.066-1.1,0.189c-0.344-0.123-0.714-0.189-1.101-0.189h-0.733c-0.386,0-0.756,0.066-1.101,0.189    c-0.344-0.123-0.714-0.189-1.101-0.189h-0.733c-0.386,0-0.756,0.066-1.101,0.189c-0.344-0.123-0.714-0.189-1.1-0.189h-0.734    c-0.386,0-0.756,0.066-1.1,0.189c-0.344-0.123-0.714-0.189-1.101-0.189h-0.733c-0.386,0-0.756,0.066-1.101,0.189    c-0.344-0.123-0.714-0.189-1.1-0.189h-0.734c-1.811,0-3.28,1.469-3.28,3.279c0,1.812,1.469,3.28,3.28,3.28h0.734    c0.386,0,0.756-0.067,1.1-0.189c0.344,0.122,0.714,0.189,1.101,0.189h0.733c0.386,0,0.756-0.067,1.101-0.189    c0.344,0.122,0.714,0.189,1.1,0.189h0.734c0.386,0,0.756-0.067,1.1-0.189c0.344,0.122,0.714,0.189,1.101,0.189h0.733    c0.386,0,0.756-0.067,1.101-0.189c0.344,0.122,0.714,0.189,1.101,0.189h0.733c0.386,0,0.756-0.067,1.101-0.189    c0.344,0.122,0.714,0.189,1.1,0.189h0.734c0.386,0,0.756-0.067,1.1-0.189c0.344,0.122,0.714,0.189,1.1,0.189h0.734    c0.386,0,0.756-0.067,1.1-0.189c0.344,0.122,0.714,0.189,1.101,0.189h0.734c0.386,0,0.756-0.067,1.1-0.189    c0.344,0.122,0.714,0.189,1.1,0.189h0.734c0.386,0,0.756-0.067,1.101-0.189c0.344,0.122,0.714,0.189,1.1,0.189h0.733    c0.386,0,0.756-0.067,1.101-0.189c0.344,0.122,0.714,0.189,1.1,0.189h0.733c0.387,0,0.757-0.067,1.101-0.189    c0.344,0.122,0.714,0.189,1.101,0.189h0.733c0.386,0,0.756-0.067,1.101-0.189c0.344,0.122,0.714,0.189,1.101,0.189h0.733    c0.386,0,0.756-0.067,1.101-0.189c0.344,0.122,0.714,0.189,1.1,0.189h0.733c0.386,0,0.756-0.067,1.101-0.189    c0.344,0.122,0.714,0.189,1.101,0.189h0.733c0.386,0,0.756-0.067,1.101-0.189c0.344,0.122,0.714,0.189,1.1,0.189h0.733    c0.387,0,0.757-0.067,1.101-0.189c0.344,0.122,0.714,0.189,1.101,0.189h0.733c0.386,0,0.756-0.067,1.101-0.189    c0.344,0.122,0.714,0.189,1.101,0.189h0.733c0.386,0,0.756-0.067,1.101-0.189c0.343,0.122,0.713,0.189,1.1,0.189h0.734    c0.386,0,0.756-0.067,1.1-0.189c0.344,0.122,0.714,0.189,1.101,0.189h0.734c0.386,0,0.756-0.067,1.101-0.189    c0.343,0.122,0.714,0.189,1.1,0.189h0.733c0.387,0,0.757-0.067,1.101-0.189c0.344,0.122,0.714,0.189,1.1,0.189h0.733    c0.386,0,0.756-0.067,1.101-0.189c0.344,0.122,0.714,0.189,1.1,0.189h0.734c0.386,0,0.756-0.067,1.1-0.189    c0.344,0.122,0.714,0.189,1.101,0.189h0.733c0.386,0,0.757-0.067,1.101-0.189c0.344,0.122,0.714,0.189,1.101,0.189h0.733    c0.386,0,0.756-0.067,1.101-0.189c0.344,0.122,0.714,0.189,1.101,0.189h0.733c0.386,0,0.756-0.067,1.1-0.189    c0.344,0.122,0.714,0.189,1.101,0.189h0.733c0.386,0,0.756-0.067,1.101-0.189c0.344,0.122,0.714,0.189,1.1,0.189h0.734    c0.386,0,0.756-0.067,1.1-0.189c0.344,0.122,0.714,0.189,1.101,0.189h0.733c0.386,0,0.756-0.067,1.101-0.189    c0.344,0.122,0.714,0.189,1.101,0.189h0.733c0.386,0,0.756-0.067,1.101-0.189c0.344,0.122,0.714,0.189,1.101,0.189h0.733    c0.386,0,0.756-0.067,1.1-0.189c0.344,0.122,0.715,0.189,1.101,0.189h0.734c0.386,0,0.756-0.067,1.101-0.189    c0.343,0.122,0.714,0.189,1.1,0.189h0.734c0.386,0,0.756-0.067,1.1-0.189c0.344,0.122,0.714,0.189,1.1,0.189h0.734    c0.386,0,0.756-0.067,1.1-0.189c0.344,0.122,0.715,0.189,1.101,0.189h0.733c0.386,0,0.756-0.067,1.101-0.189    c0.344,0.122,0.714,0.189,1.1,0.189h0.733c0.387,0,0.757-0.067,1.101-0.189c0.344,0.122,0.714,0.189,1.101,0.189h0.733    c0.386,0,0.756-0.067,1.101-0.189c0.344,0.122,0.714,0.189,1.101,0.189h0.733c0.386,0,0.756-0.067,1.101-0.189    c0.344,0.122,0.714,0.189,1.1,0.189h0.734c0.386,0,0.756-0.067,1.1-0.189c0.344,0.122,0.714,0.189,1.101,0.189h0.733    c0.386,0,0.756-0.067,1.101-0.189c0.344,0.122,0.714,0.189,1.1,0.189h0.733c0.387,0,0.757-0.067,1.101-0.189    c0.344,0.122,0.714,0.189,1.101,0.189h0.733c0.386,0,0.756-0.067,1.101-0.189c0.344,0.122,0.714,0.189,1.101,0.189h0.733    c0.386,0,0.756-0.067,1.101-0.189c0.343,0.122,0.713,0.189,1.1,0.189h0.734c0.386,0,0.756-0.067,1.101-0.189    c0.344,0.122,0.714,0.189,1.1,0.189h0.734c0.386,0,0.756-0.067,1.1-0.189c0.344,0.122,0.714,0.189,1.101,0.189h0.733    c0.387,0,0.757-0.067,1.101-0.189c0.344,0.122,0.714,0.189,1.1,0.189h0.733c0.386,0,0.756-0.067,1.101-0.189    c0.344,0.122,0.714,0.189,1.101,0.189h0.733c0.386,0,0.756-0.067,1.1-0.189c0.344,0.122,0.714,0.189,1.101,0.189h0.733    c0.386,0,0.757-0.067,1.101-0.189c0.344,0.122,0.714,0.189,1.101,0.189h0.733c0.386,0,0.756-0.067,1.101-0.189    c0.344,0.122,0.714,0.189,1.101,0.189h0.733c0.386,0,0.756-0.067,1.1-0.189c0.344,0.122,0.715,0.189,1.101,0.189h0.733    c0.386,0,0.757-0.067,1.101-0.189c0.344,0.122,0.715,0.189,1.102,0.189h0.732c0.387,0,0.757-0.067,1.101-0.189    c0.345,0.122,0.714,0.189,1.101,0.189h0.733c0.386,0,0.756-0.067,1.101-0.189c0.344,0.122,0.713,0.189,1.1,0.189h0.734    c0.386,0,0.756-0.067,1.1-0.189c0.344,0.122,0.715,0.189,1.101,0.189h0.733c0.387,0,0.757-0.067,1.1-0.189    c0.344,0.122,0.715,0.189,1.102,0.189h0.733c0.386,0,0.757-0.067,1.101-0.189c0.344,0.122,0.715,0.189,1.101,0.189h0.733    c0.386,0,0.756-0.067,1.101-0.189c0.344,0.122,0.714,0.189,1.1,0.189h0.733c0.387,0,0.757-0.067,1.101-0.189    c0.345,0.122,0.714,0.189,1.101,0.189h0.733c0.386,0,0.756-0.067,1.101-0.189c0.344,0.122,0.715,0.189,1.101,0.189h0.733    c0.386,0,0.756-0.067,1.1-0.189c0.345,0.122,0.715,0.189,1.102,0.189h0.732c0.387,0,0.758-0.067,1.102-0.189    c0.344,0.122,0.714,0.189,1.1,0.189h0.734c0.387,0,0.756-0.067,1.1-0.189c0.344,0.122,0.714,0.189,1.1,0.189h0.734    c0.387,0,0.756-0.067,1.1-0.189c0.345,0.122,0.715,0.189,1.102,0.189h0.732c0.387,0,0.758-0.067,1.102-0.189    c0.344,0.122,0.715,0.189,1.101,0.189h0.733c0.387,0,0.757-0.067,1.101-0.189c0.345,0.122,0.714,0.189,1.101,0.189h0.733    c0.386,0,0.756-0.067,1.101-0.189c0.344,0.122,0.713,0.189,1.1,0.189h0.734c0.386,0,0.756-0.067,1.1-0.189    c0.344,0.122,0.715,0.189,1.101,0.189h0.733c0.386,0,0.757-0.067,1.101-0.189c0.343,0.122,0.715,0.189,1.101,0.189h0.733    c0.386,0,0.757-0.067,1.101-0.189c0.344,0.122,0.715,0.189,1.101,0.189h0.733c0.387,0,0.756-0.067,1.1-0.189    c0.345,0.122,0.715,0.189,1.101,0.189h0.733c0.387,0,0.756-0.067,1.101-0.189c0.345,0.122,0.715,0.189,1.101,0.189h0.733    c0.386,0,0.756-0.067,1.101-0.189c0.344,0.122,0.714,0.189,1.1,0.189h0.734c0.386,0,0.756-0.067,1.1-0.189    c0.345,0.122,0.715,0.189,1.102,0.189h0.732c0.387,0,0.758-0.067,1.102-0.189c0.344,0.122,0.714,0.189,1.1,0.189h0.734    c0.387,0,0.756-0.067,1.1-0.189c0.344,0.122,0.714,0.189,1.1,0.189h0.734c0.387,0,0.756-0.067,1.1-0.189    c0.345,0.122,0.715,0.189,1.102,0.189h0.732c0.387,0,0.758-0.067,1.102-0.189c0.344,0.122,0.715,0.189,1.101,0.189h0.733    c0.386,0,0.757-0.067,1.101-0.189c0.345,0.122,0.714,0.189,1.101,0.189h0.733c0.386,0,0.756-0.067,1.101-0.189    c0.344,0.122,0.713,0.189,1.1,0.189h0.734c0.386,0,0.756-0.067,1.1-0.189c0.344,0.122,0.715,0.189,1.101,0.189h0.733    c0.386,0,0.756-0.067,1.1-0.189c0.344,0.122,0.715,0.189,1.102,0.189h0.733c0.386,0,0.757-0.067,1.101-0.189    c0.344,0.122,0.714,0.189,1.1,0.189h0.734c0.387,0,0.756-0.067,1.1-0.189c0.345,0.122,0.715,0.189,1.101,0.189h0.733    c0.387,0,0.756-0.067,1.101-0.189c0.345,0.122,0.714,0.189,1.101,0.189h0.733c0.386,0,0.756-0.067,1.101-0.189    c0.344,0.122,0.714,0.189,1.1,0.189h0.733c0.386,0,0.757-0.067,1.101-0.189c0.345,0.122,0.715,0.189,1.102,0.189h0.732    c0.387,0,0.758-0.067,1.102-0.189c0.344,0.122,0.714,0.189,1.1,0.189h0.734c0.386,0,0.756-0.067,1.1-0.189    c0.344,0.122,0.714,0.189,1.1,0.189h0.734c0.387,0,0.756-0.067,1.1-0.189c0.345,0.122,0.715,0.189,1.102,0.189h0.732    c0.387,0,0.758-0.067,1.102-0.189c0.344,0.122,0.715,0.189,1.101,0.189h0.733c0.386,0,0.756-0.067,1.101-0.189    c0.345,0.122,0.714,0.189,1.101,0.189h0.733c0.386,0,0.756-0.067,1.101-0.189c0.344,0.122,0.713,0.189,1.1,0.189h0.734    c0.385,0,0.756-0.067,1.1-0.189c0.344,0.122,0.715,0.189,1.1,0.189h0.734c0.386,0,0.756-0.067,1.101-0.189    c0.343,0.122,0.714,0.189,1.101,0.189h0.733c0.386,0,0.757-0.067,1.101-0.189c0.344,0.122,0.714,0.189,1.1,0.189h0.733    c0.386,0,0.757-0.067,1.101-0.189c0.344,0.122,0.715,0.189,1.101,0.189h0.733c0.387,0,0.758-0.067,1.102-0.189    c0.343,0.122,0.713,0.189,1.1,0.189h0.733c0.386,0,0.757-0.067,1.101-0.189c0.344,0.122,0.714,0.189,1.1,0.189h0.734    c1.811,0,3.279-1.469,3.279-3.28C400.955,466.43,399.486,464.961,397.676,464.961z"/>
</g>
</g>
<g id="Layer_1"/>
</svg>